<svg xmlns="http://www.w3.org/2000/svg" xml:space="preserve" width="2000" height="88" data-id="lg_H7rFQGdVco8X8MFkFj" data-version="1" viewBox="0 0 2000 88"><g data-padding="20"><g transform="translate(10 1.574)scale(.96422)"><rect width="425.198" height="79.1" x="466.085" y="-40.068" fill="none" rx="0" ry="0" transform="matrix(1.1 0 0 1.1 325.79 44.23)"/><path fill="#fff" d="M851.333 49.15q0 6.42 2.24 9.24t7.03 2.82q4.41 0 8.39-2.05t6.69-5.68l1.77.77q-2.55 6.57-8.85 10.48-6.3 3.9-13.18 3.9-8.96 0-12.94-4.52t-3.98-14.49q0-6.42 1.62-13.38 1.62-6.95 4.48-12.44 3.71-7.03 9.01-10.71 5.29-3.67 11.86-3.67 6.19 0 9.55 2.67t3.36 7.69q0 3.48-1.39 5.29-1.39 1.82-4.02 1.82-1.31 0-2.43-.5t-1.98-1.51q1.4-.69 2.48-2.82t1.08-4.29q0-2.24-1.24-3.48-1.23-1.23-3.47-1.23-3.41 0-6.73 4.13-3.32 4.14-5.8 11.4-1.7 4.95-2.62 10.32-.93 5.37-.93 10.24"/><path fill="#fff" d="M885.723 14.82q3.95-2.55 8.47-3.98t8.85-1.43q.54 0 1.2.04.65.04 1.89.12l-12.29 57.82h-11.13l11.21-52.49q-5.26 2.16-8.04 6.49t-2.78 10.36q0 1.47.19 2.55t.66 2.09q.15.31.19.42.04.12.04.2-4.33 0-6.3-1.82t-1.97-5.68q0-3.87 2.59-7.73 2.59-3.87 7.22-6.96m43.29 23.42-6.18 29.15h-11.13l10.51-49.17 11.44-1.54-3.79 17.85h.62q4.41 0 7.69-4.25 3.29-4.25 3.29-9.2 0-3.78-2.25-5.95-2.24-2.16-6.26-2.16-9.58 0-15.22 5.06-5.65 5.06-5.65 13.72 0 1.47.2 2.55.19 1.08.65 2.09.16.31.2.42.04.12.04.2-4.33 0-6.3-1.82-1.98-1.82-1.98-5.68 0-3.87 2.59-7.73 2.59-3.87 7.23-6.96 3.94-2.55 8.47-3.98 4.52-1.43 8.85-1.43 8.11 0 12.83 3.4 4.71 3.4 4.71 8.97 0 3.71-2.28 7.34-2.28 3.64-6.07 5.88 2.71.77 4.02 2.66 1.32 1.9 1.32 5.07 0 1.78-.39 4.06t-1.7 6.91q-1.08 3.95-1.39 5.65t-.31 2.93q0 1.78.81 3.17t2.2 1.94q-2.24.61-4.21.96t-3.44.35q-3.01 0-4.52-1.28-1.51-1.27-1.51-3.9 0-1.31.39-3.21.39-1.89 1.55-6.3 1.31-4.79 1.73-6.99.43-2.21.43-3.83 0-2.63-1.16-3.94-1.16-1.32-3.48-1.32-.31 0-.65.04-.35.04-1.9.27m36.18 10.91q0 6.42 2.24 9.24t7.03 2.82q4.41 0 8.39-2.05t6.68-5.68l1.78.77q-2.55 6.57-8.85 10.48-6.3 3.9-13.18 3.9-8.96 0-12.94-4.52t-3.98-14.49q0-6.42 1.62-13.38 1.62-6.95 4.48-12.44 3.71-7.03 9.01-10.71 5.29-3.67 11.86-3.67 6.19 0 9.55 2.67t3.36 7.69q0 3.48-1.39 5.29-1.39 1.82-4.02 1.82-1.31 0-2.44-.5-1.12-.5-1.97-1.51 1.39-.69 2.48-2.82 1.08-2.13 1.08-4.29 0-2.24-1.24-3.48-1.23-1.23-3.48-1.23-3.4 0-6.72 4.13-3.32 4.14-5.8 11.4-1.7 4.95-2.63 10.32-.92 5.37-.92 10.24"/><path fill="#fff" d="M1027.873 49.68q.93-2.86 1.98-6.84 1.04-3.98 2.2-9.39l5.18-23.88h10.9l-5.11 24.11q-1.85 8.89-3.47 14.23-1.63 5.33-3.56 8.89-3.09 5.87-7.81 8.5-4.71 2.63-11.98 2.63-7.73 0-11.32-2.94-3.6-2.94-3.6-9.35 0-2.79.58-6.57.58-3.79 1.9-9.28.69-3.01 2.08-8.5 1.4-5.49 1.78-7.19l2.55-10.2q-6.49 1.7-10.08 6.37-3.6 4.68-3.6 11.4 0 1.55.19 2.67.2 1.12.66 2.05.16.31.2.42.03.12.03.2-4.17 0-6.22-1.78t-2.05-5.33q0-4.26 2.79-8.31 2.78-4.06 7.8-7.08 4.1-2.47 8.93-3.78 4.83-1.32 9.7-1.32 1.01 0 1.74.08t1.97.31q-1.31 4.79-3.28 11.98t-2.59 9.66q-2.71 10.05-3.64 14.57-.92 4.52-.92 7.38 0 3.56 1.31 5.26t4.02 1.7q4.56 0 6.69-2.36 2.12-2.35 4.05-8.31m27.06-34.86q3.94-2.55 8.46-3.98t8.85-1.43q.54 0 1.2.04t1.89.12l-12.29 57.82h-11.13l11.21-52.49q-5.25 2.16-8.04 6.49-2.78 4.33-2.78 10.36 0 1.47.19 2.55.2 1.08.66 2.09.16.31.19.42.04.12.04.2-4.33 0-6.3-1.82t-1.97-5.68q0-3.87 2.59-7.73 2.59-3.87 7.23-6.96m65.3-3.55q2.32 0 4.72-.43 2.4-.42 4.25-1.2-.08 4.95-2.51 7.39-2.44 2.43-7.15 2.43-2.24 0-4.99-.39-2.74-.38-6.99-1.31l-10.67 49.63h-11.13l10.98-51.18h-.93q-7.5 0-11.02 3.83-3.51 3.83-3.51 11.79 0 1.47.19 2.55t.66 2.09q.15.31.19.42.04.12.04.19-4.33 0-6.3-1.81-1.97-1.82-1.97-5.68 0-9.2 6.92-14.65 6.91-5.45 19.44-5.45 2.55 0 4.9.19 2.36.2 6.07.74 3.25.54 5.07.69 1.81.16 3.74.16"/><path fill="#fff" d="M1125.103 49.15q0 6.42 2.25 9.24 2.24 2.82 7.03 2.82 4.41 0 8.39-2.05t6.68-5.68l1.78.77q-2.55 6.57-8.85 10.48-6.3 3.9-13.18 3.9-8.97 0-12.95-4.52t-3.98-14.49q0-6.42 1.63-13.38 1.62-6.95 4.48-12.44 3.71-7.03 9-10.71 5.3-3.67 11.87-3.67 6.18 0 9.55 2.67 3.36 2.67 3.36 7.69 0 3.48-1.39 5.29-1.39 1.82-4.02 1.82-1.32 0-2.44-.5t-1.97-1.51q1.39-.69 2.47-2.82 1.09-2.13 1.09-4.29 0-2.24-1.24-3.48-1.24-1.23-3.48-1.23-3.4 0-6.72 4.13-3.33 4.14-5.8 11.4-1.7 4.95-2.63 10.32t-.93 10.24"/><path fill="#fff" d="m1186.103 35.93 4.48-21.03q-3.16 1.7-6.72 6.38-3.56 4.67-7.19 11.94 2.78.54 5.14 1.24 2.36.69 4.29 1.47m10.51-26.52q1.63 0 3.25.27t2.86.81l-12.14 56.9h-11.13l5.96-28.06q-2.71-1.24-5.11-1.9-2.39-.65-5.25-.89-4.41 9.59-7.23 19.48-2.82 9.9-2.82 15.85 0 1.39.27 2.43.27 1.05.81 1.9-5.87 0-8.11-2.01-2.25-2.01-2.25-6.19 0-5.18 3.13-13.83 3.13-8.66 8.24-17.63-3.95.24-6.15 1.24-2.2 1.01-2.9 2.78.31 0 .66.81.35.82.35 1.59 0 1.31-1.24 2.16t-3.09.85q-2.17 0-3.48-1.19-1.31-1.2-1.31-3.29 0-4.02 4.52-6.76 4.52-2.75 11.25-2.75.77 0 1.77.04 1.01.04 2.24.19 6.81-10.74 13.84-16.77t13.06-6.03m28.84 28.83-6.19 29.15h-11.13l10.51-49.17 11.44-1.54-3.78 17.85h.61q4.41 0 7.7-4.25 3.28-4.25 3.28-9.2 0-3.78-2.24-5.95-2.24-2.16-6.26-2.16-9.59 0-15.23 5.06t-5.64 13.72q0 1.47.19 2.55t.66 2.09q.15.31.19.42.04.12.04.2-4.33 0-6.3-1.82t-1.97-5.68q0-3.87 2.59-7.73 2.59-3.87 7.23-6.96 3.94-2.55 8.46-3.98t8.85-1.43q8.12 0 12.83 3.4 4.72 3.4 4.72 8.97 0 3.71-2.28 7.34-2.28 3.64-6.07 5.88 2.7.77 4.02 2.66 1.31 1.9 1.31 5.07 0 1.78-.38 4.06-.39 2.28-1.7 6.91-1.09 3.95-1.4 5.65t-.31 2.93q0 1.78.82 3.17.81 1.39 2.2 1.94-2.24.61-4.21.96t-3.44.35q-3.02 0-4.52-1.28-1.51-1.27-1.51-3.9 0-1.31.38-3.21.39-1.89 1.55-6.3 1.31-4.79 1.74-6.99.42-2.21.42-3.83 0-2.63-1.15-3.94-1.16-1.32-3.48-1.32-.31 0-.66.04t-1.89.27m68.48-26.97q2.32 0 4.72-.43 2.39-.42 4.25-1.2-.08 4.95-2.51 7.39-2.44 2.43-7.15 2.43-2.25 0-4.99-.39-2.74-.38-7-1.31l-10.66 49.63h-11.13l10.97-51.18h-.92q-7.5 0-11.02 3.83t-3.52 11.79q0 1.47.2 2.55.19 1.08.65 2.09.16.31.2.42.04.12.04.19-4.33 0-6.3-1.81-1.98-1.82-1.98-5.68 0-9.2 6.92-14.65t19.44-5.45q2.55 0 4.91.19 2.36.2 6.07.74 3.25.54 5.06.69 1.82.16 3.75.16m-538.105 8.095c2.996 0 5.992-1.712 7.276-4.28h8.132l8.56 8.56h20.544l8.56-8.56h8.132c1.284 2.568 4.28 4.28 7.276 4.28a8.56 8.56 0 0 0 0-17.12c-2.996 0-5.992 1.712-7.276 4.28h-11.556l-8.56 8.56H783.22l-8.56-8.56h-11.556c-1.284-2.568-4.28-4.28-7.276-4.28a8.56 8.56 0 0 0 0 17.12m68.48 8.56c-2.996 0-5.992 1.712-7.276 4.28h-11.556l-8.56 8.56H783.22l-8.56-8.56h-11.556c-1.284-2.568-4.28-4.28-7.276-4.28a8.56 8.56 0 0 0 0 17.12c2.996 0 5.992-1.712 7.276-4.28h8.132l8.56 8.56h20.544l8.56-8.56h8.132c1.284 2.568 4.28 4.28 7.276 4.28a8.56 8.56 0 0 0 0-17.12m0 25.68c-2.996 0-5.992 1.712-7.276 4.28h-16.264l-12.84 17.12h-24.824c-1.284-2.568-4.28-4.28-7.276-4.28a8.56 8.56 0 0 0 0 17.12c2.996 0 5.992-1.712 7.276-4.28h29.104l12.84-17.12h11.984c1.284 2.568 4.28 4.28 7.276 4.28a8.56 8.56 0 0 0 0-17.12"/></g><path fill="transparent" stroke="transparent" d="M720.5 0h559v88h-559z"/></g></svg>